<?xml version="1.0" encoding="UTF-8"?>
<svg enable-background="new 0 0 434.869 434.87" viewBox="0 0 434.869 434.87" xmlns="http://www.w3.org/2000/svg">
 <path d="m212.44 401.5v28.53c0 6.448 10 6.448 10 0v-28.53c0-6.448-10-6.448-10 0z"/>
 <path d="m121.93 374.6-15.109 24.47c-3.398 5.503 5.254 10.521 8.635 5.047l15.109-24.47c3.398-5.503-5.254-10.522-8.635-5.047z"/>
 <path d="m55.506,304.669-24.75,14.748c-5.533,3.297-.506,11.944 5.047,8.635l24.75-14.748c5.532-3.297.506-11.945-5.047-8.635z"/>
 <path d="m32.931 212.44h-28.095c-6.449 0-6.449 10 0 10h28.095c6.449 0 6.449-10 0-10z"/>
 <path d="m60.913 120.77-25.11-13.952c-5.642-3.135-10.684 5.503-5.047 8.635l25.11 13.952c5.642 3.135 10.684-5.503 5.047-8.635z"/>
 <path d="m129.125,54.968-13.671-24.211c-3.17-5.614-11.81-.576-8.635,5.047l13.671,24.211c3.17,5.614 11.809.576 8.635-5.047z"/>
 <path d="m222.44 33v-28.163c0-6.449-10-6.449-10 0v28.163c0 6.449 10 6.449 10 0z"/>
 <path d="m314.56 60.812 13.494-25.008c3.062-5.674-5.572-10.723-8.635-5.047l-13.494 25.008c-3.062 5.674 5.572 10.723 8.635 5.047z"/>
 <path d="m379.36 130.2 24.75-14.749c5.532-3.297 0.507-11.944-5.047-8.635l-24.75 14.749c-5.532 3.297-0.506 11.944 5.047 8.635z"/>
 <path d="m401.44 222.44h28.598c6.448 0 6.448-10 0-10h-28.598c-6.449 0-6.449 10 0 10z"/>
 <path d="m374.68 314.12 24.39 13.93c5.608 3.203 10.645-5.438 5.047-8.635l-24.39-13.93c-5.609-3.203-10.645 5.438-5.047 8.635z"/>
 <path d="m305.206,378.826 14.211,25.288c3.159,5.621 11.798.581 8.635-5.047l-14.211-25.288c-3.159-5.621-11.798-.581-8.635,5.047z"/>
 <path d="m218.59 204.68h-0.701c-6.814 0-12.5 5.686-12.5 12.5s5.686 12.5 12.5 12.5h0.701c6.814 0 12.5-5.686 12.5-12.5s-5.686-12.5-12.5-12.5z"/>
 <path d="m220.3 217.92v-112.32c0-3.224-5-3.224-5 0v112.32c0 3.224 5 3.224 5 0z"/>
 <path d="m219.159,215.916-74.061-128.15-5.925-10.252c-1.612-2.79-5.934-.273-4.317,2.523l74.061,128.15 5.925,10.252c1.612,2.79 5.933.273 4.317-2.523z"/>
</svg>
